<svg version="1.1" xmlns="http://www.w3.org/2000/svg" xmlns:xlink="http://www.w3.org/1999/xlink" preserveAspectRatio="xMidYMid meet" viewBox="622 296 228 150"><g data-item-type="text" data-item="Business" id="logo__item--business" class="logo__item">
                <g class="logo__item__inner" transform="translate(623.4140625 442.9630791884817) scale(1 1) rotate(0 0 0)">
                    <text data-part-id="logo__item--business" dy="0" dominant-baseline="auto" alignment-baseline="auto" font-family="Montserrat" font-size="32px" fill="#25397B" letter-spacing="0" font-weight="bold" font-style="normal" data-font-family="Montserrat" data-font-weight="bold" data-font-style="normal" data-ttf-url="/builder_assets/fontsttf/font-montserrat-bold-normal.ttf">Hitesh Kumar</text>
                </g>
            </g><g data-item-type="image" data-item="Image" data-logo-item="" id="logo__item--logo_0" class="logo__item">
    <g class="logo__item__inner" transform="translate(657.8257442034405 277) scale(1.4705160807778608 1.4705160807778608) rotate(0 0 0)">
        
<g>
	<path fill="#FFFFFF" d="M30.828,15.772c-5.438,1.563-9.376,7.301-8.679,12.947c0.639,5.438,5.23,10.203,10.738,10.732   c5.529,0.771,11.159-2.902,12.909-8.146c1.176-4.036,0.538-8.751-2.405-11.896C40.396,15.831,35.266,14.482,30.828,15.772    M59.44,22.999c-4.826,1.564-6.204,8.628-2.203,11.805c3.778,3.76,11.058,1.062,11.504-4.254   C69.71,25.55,64.134,21.078,59.44,22.999 M47.521,46.087c-6.364-1.149-12.931-1.982-19.347-0.758   c-4.758,0.706-9.446,3.35-11.675,7.737c-2.352,4.613-1.921,10.031-1.293,14.989l-0.106-0.479c-1.634,0.745-3.358,1.347-4.778,2.479   c9.871,1.83,18.406,8.1,24.195,16.145c14.261-4.107,28.602-7.939,42.889-11.956c0.943-0.048,1.117-1.018,0.804-1.708l-0.404-0.298   c0.548,0,1.097-0.012,1.639-0.097c-1.479-3.932-1.729-8.365-0.623-12.414c1.018-3.82,3.996-6.657,7.189-8.773   c1.975,0.851,3.922,1.765,5.912,2.595c-7.04-6.342-15.309-12.049-24.85-13.581C60.042,38.837,52.564,41.009,47.521,46.087" data-part-id="logo__item--logo_0__0"></path>
	<path fill="#FFFFFF" d="M58.104,48.541c2.124-2.695,5.773-3.195,8.987-2.902c6.523,0.639,12.745,2.914,18.806,5.283   c-3.183,1.65-6.551,2.886-9.888,4.179C70.29,52.3,64.096,50.646,58.104,48.541" data-part-id="logo__item--logo_0__1"></path>
	<path fill="#FFFFFF" d="M25.709,57.339c6.614-4.826,14.979-6.63,23.046-6.614c9.167-0.09,18.284,1.677,26.972,4.518   c-3.958,1.756-8.039,3.209-11.988,4.987c0.356,0.313,1.081,0.941,1.442,1.261c-5.997-4.215-13.383-6.408-20.694-6.46   c-2.463-0.171-4.586,1.214-6.747,2.171c-6.71,3.064-13.409,6.183-20.136,9.205C19.563,62.815,22.394,59.733,25.709,57.339" data-part-id="logo__item--logo_0__2"></path>
	<path fill="#25397B" d="M30.828,15.772c4.438-1.29,9.568,0.062,12.563,3.638c2.943,3.147,3.581,7.862,2.405,11.896   c-1.75,5.244-7.38,8.918-12.909,8.146c-5.507-0.529-10.099-5.294-10.738-10.732C21.452,23.074,25.39,17.335,30.828,15.772" data-part-id="logo__item--logo_0__3"></path>
	<path fill="#25397B" d="M59.44,22.999c4.693-1.921,10.275,2.551,9.301,7.551c-0.446,5.316-7.726,8.014-11.504,4.254   C53.236,31.627,54.614,24.563,59.44,22.999" data-part-id="logo__item--logo_0__4"></path>
	<path fill="#25397B" d="M47.521,46.087c5.044-5.079,12.521-7.25,19.551-6.119c9.541,1.532,17.81,7.239,24.85,13.581   c-1.99-0.83-3.938-1.744-5.912-2.602c-3.193,2.123-6.172,4.96-7.189,8.785c-1.106,4.044-0.855,8.478,0.623,12.409   c-0.542,0.085-1.091,0.097-1.639,0.097c-4.326-3.438-8.375-7.21-12.622-10.749c-0.361-0.319-1.086-0.947-1.442-1.261   c3.949-1.778,8.03-3.231,11.995-4.987c-8.695-2.841-17.812-4.607-26.979-4.518c-8.067-0.016-16.432,1.788-23.046,6.614   c-3.315,2.395-6.146,5.477-8.104,9.067c-0.67,1.288-1.25,2.613-1.862,3.928c-0.133-0.575-0.405-1.714-0.538-2.278   c-0.628-4.958-1.059-10.376,1.293-14.989c2.229-4.385,6.917-7.032,11.675-7.737C34.59,44.105,41.157,44.938,47.521,46.087    M58.104,48.541C64.096,50.646,70.29,52.3,76.01,55.1c3.337-1.293,6.705-2.528,9.888-4.179c-6.061-2.369-12.282-4.644-18.806-5.283   C63.878,45.345,60.229,45.846,58.104,48.541" data-part-id="logo__item--logo_0__5"></path>
	<path fill="#25397B" d="M62.324,26.516" data-part-id="logo__item--logo_0__6"></path>
	<path fill="#25397B" d="M62.324,26.516" data-part-id="logo__item--logo_0__7"></path>
	<path fill="#5EBA47" d="M37.74,57.201c2.161-0.957,4.284-2.342,6.747-2.171c7.312,0.052,14.697,2.245,20.694,6.46   c4.247,3.539,8.296,7.312,12.622,10.749l0.404,0.298c0.313,0.69,0.14,1.66-0.804,1.708c-14.287,4.017-28.627,7.849-42.889,11.956   c-5.79-8.045-14.325-14.314-24.195-16.145c1.415-1.139,3.145-1.734,4.778-2.479l0.106,0.479c0.133,0.564,0.399,1.703,0.538,2.278   c0.612-1.314,1.192-2.64,1.862-3.928C24.332,63.384,31.03,60.266,37.74,57.201" data-part-id="logo__item--logo_0__8"></path>
</g>

    </g>
</g></svg>