<svg width="17" height="20" viewBox="0 0 17 20" fill="none" xmlns="http://www.w3.org/2000/svg">
<path fill-rule="evenodd" clip-rule="evenodd" d="M15.2106 7.52026C15.3862 8.39147 15.7906 9.20107 16.3826 9.86701C16.7506 10.4143 16.9638 11.0498 16.9999 11.7071V11.9115C17.0054 12.7984 16.6876 13.6573 16.1052 14.3294C15.3671 15.1186 14.3657 15.6145 13.2871 15.725C10.1005 16.1339 6.87428 16.1339 3.6877 15.725C2.59645 15.6229 1.5809 15.1263 0.833815 14.3294C0.269727 13.6508 -0.0260731 12.7912 0.00180533 11.9115V11.7071C0.036718 11.0523 0.243355 10.4179 0.60121 9.86701C1.19585 9.20046 1.60588 8.39176 1.79107 7.52026C1.81791 7.18247 1.81791 6.84246 1.81791 6.50245C1.81791 6.16243 1.81791 5.82242 1.84475 5.48463C2.18471 2.24008 5.31593 0 8.44715 0H8.53662C11.6321 0 14.8259 2.24008 15.1569 5.48463C15.1838 5.81798 15.1838 6.15799 15.1838 6.49911C15.1838 6.84023 15.1838 7.18247 15.2106 7.52026ZM9.66386 17.085C10.1612 17.0997 10.6495 17.221 11.0953 17.4406H11.1221C11.4946 17.7445 11.5578 18.2868 11.2653 18.6673C10.7325 19.4297 9.88008 19.9104 8.94815 19.974C7.99069 20.0882 7.02649 19.8231 6.26425 19.2362C5.87223 18.9674 5.61748 18.5423 5.56643 18.0717C5.56643 17.5739 6.03164 17.3428 6.46107 17.245C6.96404 17.1391 7.47674 17.0855 7.99089 17.085H9.66386Z" fill="#3672E9" fill-opacity="0.6"/>
</svg>
