<svg width="16" height="20" viewBox="0 0 16 20" fill="none" xmlns="http://www.w3.org/2000/svg">
<path fill-rule="evenodd" clip-rule="evenodd" d="M13.2538 5.40036C13.2538 8.38289 10.9027 10.8007 8.00252 10.8007C5.1023 10.8007 2.75121 8.38289 2.75121 5.40036C2.75121 2.41782 5.1023 0 8.00252 0C10.9027 0 13.2538 2.41782 13.2538 5.40036ZM12.5098 13.8434C14.1795 14.1815 15.2696 14.7331 15.7367 15.6228C16.0876 16.3171 16.0876 17.1437 15.7367 17.8381C15.2696 18.7278 14.2228 19.3149 12.4925 19.6174C11.7215 19.7729 10.9411 19.874 10.1567 19.9199C9.42998 20 8.70327 20 7.96792 20H6.64428C6.36743 19.9644 6.09925 19.9466 5.83971 19.9466C5.05527 19.9063 4.27466 19.8082 3.50387 19.653C1.83418 19.3327 0.744119 18.7633 0.276951 17.8737C0.096607 17.529 0.00152986 17.144 0.000110501 16.7527C-0.00364853 16.3589 0.0885532 15.9705 0.268299 15.6228C0.726816 14.7331 1.81687 14.1548 3.50387 13.8434C4.27806 13.6915 5.06133 13.5934 5.84836 13.5498C7.28803 13.4338 8.73432 13.4338 10.174 13.5498C10.958 13.5955 11.7382 13.6936 12.5098 13.8434Z" fill="#3672E9" fill-opacity="0.6"/>
</svg>
